solid 8766
facet normal -4.371686172788269e-12 1.237732188131267e-16 1
  outer loop
    vertex 423.6492004394531 168.3453216552734 16.5
    vertex 421.6492004394531 166.3453216552734 16.5
    vertex 423.6492004394531 31.64531707763672 16.5
  endloop
endfacet
facet normal -4.371686172788269e-12 1.237732188131267e-16 1
  outer loop
    vertex 421.6492004394531 166.3453216552734 16.5
    vertex 423.6492004394531 168.3453216552734 16.5
    vertex 292.1492004394531 168.3453216552734 16.5
  endloop
endfacet
facet normal -4.371686172788269e-12 1.237732188131267e-16 1
  outer loop
    vertex 421.6492004394531 166.3453216552734 16.5
    vertex 292.1492004394531 168.3453216552734 16.5
    vertex 294.1492004394531 166.3453216552734 16.5
  endloop
endfacet
facet normal -4.371686172788269e-12 1.237732188131267e-16 1
  outer loop
    vertex 294.1492004394531 166.3453216552734 16.5
    vertex 292.1492004394531 168.3453216552734 16.5
    vertex 294.1492004394531 33.64531707763672 16.5
  endloop
endfacet
facet normal -4.371686172788269e-12 1.237732188131267e-16 1
  outer loop
    vertex 423.6492004394531 31.64531707763672 16.5
    vertex 421.6492004394531 33.64531707763672 16.5
    vertex 292.1492004394531 31.64531707763672 16.5
  endloop
endfacet
facet normal -4.371686172788269e-12 1.237732188131267e-16 1
  outer loop
    vertex 421.6492004394531 33.64531707763672 16.5
    vertex 423.6492004394531 31.64531707763672 16.5
    vertex 421.6492004394531 166.3453216552734 16.5
  endloop
endfacet
facet normal -4.371686172788269e-12 1.237732188131267e-16 1
  outer loop
    vertex 292.1492004394531 31.64531707763672 16.5
    vertex 421.6492004394531 33.64531707763672 16.5
    vertex 294.1492004394531 33.64531707763672 16.5
  endloop
endfacet
facet normal -4.371686172788269e-12 1.237732188131267e-16 1
  outer loop
    vertex 292.1492004394531 31.64531707763672 16.5
    vertex 294.1492004394531 33.64531707763672 16.5
    vertex 292.1492004394531 168.3453216552734 16.5
  endloop
endfacet
facet normal 4.387427053609283e-12 1.524544447390093e-14 -1
  outer loop
    vertex 421.6492004394531 135.5453186035156 1.5
    vertex 423.6492004394531 137.4453125 1.5
    vertex 423.6492004394531 135.5453186035156 1.5
  endloop
endfacet
facet normal 4.387427053609283e-12 1.524544447390093e-14 -1
  outer loop
    vertex 423.6492004394531 137.4453125 1.5
    vertex 421.6492004394531 135.5453186035156 1.5
    vertex 421.6492004394531 137.4453125 1.5
  endloop
endfacet
facet normal 3.431138034029466e-16 1 1.500278819227252e-27
  outer loop
    vertex 423.6492004394531 168.3453216552734 10.69999980926514
    vertex 292.1492004394531 168.3453216552734 16.5
    vertex 423.6492004394531 168.3453216552734 16.5
  endloop
endfacet
facet normal 3.431138034029466e-16 1 1.500278819227252e-27
  outer loop
    vertex 292.1492004394531 168.3453216552734 16.5
    vertex 423.6492004394531 168.3453216552734 10.69999980926514
    vertex 292.1492004394531 168.3453216552734 10.69999980926514
  endloop
endfacet
facet normal 1 4.36949448733986e-28 4.370093262956454e-12
  outer loop
    vertex 423.6492004394531 168.3453216552734 10.69999980926514
    vertex 423.6492004394531 31.64531707763672 16.5
    vertex 423.6492004394531 31.64531707763672 10.69999980926514
  endloop
endfacet
facet normal 1 4.36949448733986e-28 4.370093262956454e-12
  outer loop
    vertex 423.6492004394531 31.64531707763672 16.5
    vertex 423.6492004394531 168.3453216552734 10.69999980926514
    vertex 423.6492004394531 168.3453216552734 16.5
  endloop
endfacet
facet normal -3.538781363246707e-16 -1 -1.547323413682302e-27
  outer loop
    vertex 294.1492004394531 166.3453216552734 16.5
    vertex 421.6492004394531 166.3453216552734 1.5
    vertex 421.6492004394531 166.3453216552734 16.5
  endloop
endfacet
facet normal -3.538781363246707e-16 -1 -1.547323413682302e-27
  outer loop
    vertex 421.6492004394531 166.3453216552734 1.5
    vertex 294.1492004394531 166.3453216552734 16.5
    vertex 294.1492004394531 166.3453216552734 1.5
  endloop
endfacet
facet normal 1 3.400110423078153e-16 4.377035192626444e-12
  outer loop
    vertex 294.1492004394531 166.3453216552734 1.5
    vertex 294.1492004394531 33.64531707763672 16.5
    vertex 294.1492004394531 33.64531707763672 1.5
  endloop
endfacet
facet normal 1 3.400110423078153e-16 4.377035192626444e-12
  outer loop
    vertex 294.1492004394531 33.64531707763672 16.5
    vertex 294.1492004394531 166.3453216552734 1.5
    vertex 294.1492004394531 166.3453216552734 16.5
  endloop
endfacet
facet normal 1.769390681623353e-16 1 7.742403043446933e-28
  outer loop
    vertex 421.6492004394531 33.64531707763672 1.5
    vertex 294.1492004394531 33.64531707763672 16.5
    vertex 421.6492004394531 33.64531707763672 16.5
  endloop
endfacet
facet normal 1.769390681623353e-16 1 7.742403043446933e-28
  outer loop
    vertex 294.1492004394531 33.64531707763672 16.5
    vertex 421.6492004394531 33.64531707763672 1.5
    vertex 294.1492004394531 33.64531707763672 1.5
  endloop
endfacet
facet normal 4.371686172788269e-12 -1.237732188131267e-16 -1
  outer loop
    vertex 290.6492004394531 30.14531707763672 6.769695914954355e-11
    vertex 425.1492004394531 169.8453216552734 6.556710729910264e-10
    vertex 425.1492004394531 30.14531707763672 6.556817311320629e-10
  endloop
endfacet
facet normal 4.371686172788269e-12 -1.237732188131267e-16 -1
  outer loop
    vertex 425.1492004394531 169.8453216552734 6.556710729910264e-10
    vertex 290.6492004394531 30.14531707763672 6.769695914954355e-11
    vertex 290.6492004394531 169.8453216552734 6.767564286747074e-11
  endloop
endfacet
facet normal -1 -7.512747934640908e-28 -4.371686172788269e-12
  outer loop
    vertex 290.6492004394531 169.8453216552734 10.69999980926514
    vertex 290.6492004394531 30.14531707763672 6.769695914954355e-11
    vertex 290.6492004394531 30.14531707763672 10.69999980926514
  endloop
endfacet
facet normal -1 -7.512747934640908e-28 -4.371686172788269e-12
  outer loop
    vertex 290.6492004394531 30.14531707763672 6.769695914954355e-11
    vertex 290.6492004394531 169.8453216552734 10.69999980926514
    vertex 290.6492004394531 169.8453216552734 6.767564286747074e-11
  endloop
endfacet
facet normal -1.715569017014733e-16 -1 1.237732188131267e-16
  outer loop
    vertex 290.6492004394531 30.14531707763672 10.69999980926514
    vertex 425.1492004394531 30.14531707763672 6.556817311320629e-10
    vertex 425.1492004394531 30.14531707763672 10.69999980926514
  endloop
endfacet
facet normal -1.715569017014733e-16 -1 1.237732188131267e-16
  outer loop
    vertex 425.1492004394531 30.14531707763672 6.556817311320629e-10
    vertex 290.6492004394531 30.14531707763672 10.69999980926514
    vertex 290.6492004394531 30.14531707763672 6.769695914954355e-11
  endloop
endfacet
facet normal 3.431138034029466e-16 1 -1.237732188131267e-16
  outer loop
    vertex 425.1492004394531 169.8453216552734 6.556710729910264e-10
    vertex 290.6492004394531 169.8453216552734 10.69999980926514
    vertex 425.1492004394531 169.8453216552734 10.69999980926514
  endloop
endfacet
facet normal 3.431138034029466e-16 1 -1.237732188131267e-16
  outer loop
    vertex 290.6492004394531 169.8453216552734 10.69999980926514
    vertex 425.1492004394531 169.8453216552734 6.556710729910264e-10
    vertex 290.6492004394531 169.8453216552734 6.767564286747074e-11
  endloop
endfacet
facet normal 1 3.756373967320454e-28 4.371686172788269e-12
  outer loop
    vertex 425.1492004394531 30.14531707763672 6.556817311320629e-10
    vertex 425.1492004394531 122.4453201293945 2.799999952316284
    vertex 425.1492004394531 30.14531707763672 10.69999980926514
  endloop
endfacet
facet normal 1 3.756373967320454e-28 4.371686172788269e-12
  outer loop
    vertex 425.1492004394531 122.4453201293945 2.799999952316284
    vertex 425.1492004394531 30.14531707763672 6.556817311320629e-10
    vertex 425.1492004394531 169.8453216552734 6.556710729910264e-10
  endloop
endfacet
facet normal 1 3.756373967320454e-28 4.371686172788269e-12
  outer loop
    vertex 425.1492004394531 122.4453201293945 2.799999952316284
    vertex 425.1492004394531 169.8453216552734 6.556710729910264e-10
    vertex 425.1492004394531 128.8453216552734 2.799999952316284
  endloop
endfacet
facet normal 1 3.756373967320454e-28 4.371686172788269e-12
  outer loop
    vertex 425.1492004394531 128.8453216552734 2.799999952316284
    vertex 425.1492004394531 169.8453216552734 6.556710729910264e-10
    vertex 425.1492004394531 142.3453216552734 2.299999952316284
  endloop
endfacet
facet normal 1 3.756373967320454e-28 4.371686172788269e-12
  outer loop
    vertex 425.1492004394531 128.8453216552734 2.799999952316284
    vertex 425.1492004394531 142.3453216552734 2.299999952316284
    vertex 425.1492004394531 128.8453216552734 6
  endloop
endfacet
facet normal 1 3.756373967320454e-28 4.371686172788269e-12
  outer loop
    vertex 425.1492004394531 142.3453216552734 2.299999952316284
    vertex 425.1492004394531 169.8453216552734 6.556710729910264e-10
    vertex 425.1492004394531 151.4453125 2.299999952316284
  endloop
endfacet
facet normal 1 3.756373967320454e-28 4.371686172788269e-12
  outer loop
    vertex 425.1492004394531 151.4453125 2.299999952316284
    vertex 425.1492004394531 169.8453216552734 6.556710729910264e-10
    vertex 425.1492004394531 151.4453125 6
  endloop
endfacet
facet normal 1 3.756373967320454e-28 4.371686172788269e-12
  outer loop
    vertex 425.1492004394531 30.14531707763672 10.69999980926514
    vertex 425.1492004394531 122.4453201293945 6
    vertex 425.1492004394531 169.8453216552734 10.69999980926514
  endloop
endfacet
facet normal 1 3.756373967320454e-28 4.371686172788269e-12
  outer loop
    vertex 425.1492004394531 122.4453201293945 6
    vertex 425.1492004394531 30.14531707763672 10.69999980926514
    vertex 425.1492004394531 122.4453201293945 2.799999952316284
  endloop
endfacet
facet normal 1 3.756373967320454e-28 4.371686172788269e-12
  outer loop
    vertex 425.1492004394531 169.8453216552734 10.69999980926514
    vertex 425.1492004394531 122.4453201293945 6
    vertex 425.1492004394531 128.8453216552734 6
  endloop
endfacet
facet normal 1 3.756373967320454e-28 4.371686172788269e-12
  outer loop
    vertex 425.1492004394531 169.8453216552734 10.69999980926514
    vertex 425.1492004394531 128.8453216552734 6
    vertex 425.1492004394531 142.3453216552734 6
  endloop
endfacet
facet normal 1 3.756373967320454e-28 4.371686172788269e-12
  outer loop
    vertex 425.1492004394531 142.3453216552734 6
    vertex 425.1492004394531 128.8453216552734 6
    vertex 425.1492004394531 142.3453216552734 2.299999952316284
  endloop
endfacet
facet normal 1 3.756373967320454e-28 4.371686172788269e-12
  outer loop
    vertex 425.1492004394531 169.8453216552734 10.69999980926514
    vertex 425.1492004394531 142.3453216552734 6
    vertex 425.1492004394531 151.4453125 6
  endloop
endfacet
facet normal 1 3.756373967320454e-28 4.371686172788269e-12
  outer loop
    vertex 425.1492004394531 169.8453216552734 10.69999980926514
    vertex 425.1492004394531 151.4453125 6
    vertex 425.1492004394531 169.8453216552734 6.556710729910264e-10
  endloop
endfacet
facet normal -1.715569017014733e-16 -1 -7.501860652665287e-28
  outer loop
    vertex 292.1492004394531 31.64531707763672 16.5
    vertex 423.6492004394531 31.64531707763672 10.69999980926514
    vertex 423.6492004394531 31.64531707763672 16.5
  endloop
endfacet
facet normal -1.715569017014733e-16 -1 -7.501860652665287e-28
  outer loop
    vertex 423.6492004394531 31.64531707763672 10.69999980926514
    vertex 292.1492004394531 31.64531707763672 16.5
    vertex 292.1492004394531 31.64531707763672 10.69999980926514
  endloop
endfacet
facet normal -1 -6.164843011120238e-28 -4.375633969738724e-12
  outer loop
    vertex 292.1492004394531 168.3453216552734 16.5
    vertex 292.1492004394531 31.64531707763672 10.69999980926514
    vertex 292.1492004394531 31.64531707763672 16.5
  endloop
endfacet
facet normal -1 -6.164843011120238e-28 -4.375633969738724e-12
  outer loop
    vertex 292.1492004394531 31.64531707763672 10.69999980926514
    vertex 292.1492004394531 168.3453216552734 16.5
    vertex 292.1492004394531 168.3453216552734 10.69999980926514
  endloop
endfacet
facet normal -4.371645406786584e-12 1.211152426595325e-16 1
  outer loop
    vertex 425.1492004394531 169.8453216552734 10.69999980926514
    vertex 423.6492004394531 168.3453216552734 10.69999980926514
    vertex 425.1492004394531 30.14531707763672 10.69999980926514
  endloop
endfacet
facet normal -4.371645406786584e-12 1.211152426595325e-16 1
  outer loop
    vertex 423.6492004394531 168.3453216552734 10.69999980926514
    vertex 425.1492004394531 169.8453216552734 10.69999980926514
    vertex 290.6492004394531 169.8453216552734 10.69999980926514
  endloop
endfacet
facet normal -4.371645406786584e-12 1.211152426595325e-16 1
  outer loop
    vertex 423.6492004394531 168.3453216552734 10.69999980926514
    vertex 290.6492004394531 169.8453216552734 10.69999980926514
    vertex 292.1492004394531 168.3453216552734 10.69999980926514
  endloop
endfacet
facet normal -4.371645406786584e-12 1.211152426595325e-16 1
  outer loop
    vertex 292.1492004394531 168.3453216552734 10.69999980926514
    vertex 290.6492004394531 169.8453216552734 10.69999980926514
    vertex 292.1492004394531 31.64531707763672 10.69999980926514
  endloop
endfacet
facet normal -4.371645406786584e-12 1.211152426595325e-16 1
  outer loop
    vertex 425.1492004394531 30.14531707763672 10.69999980926514
    vertex 423.6492004394531 31.64531707763672 10.69999980926514
    vertex 290.6492004394531 30.14531707763672 10.69999980926514
  endloop
endfacet
facet normal -4.371645406786584e-12 1.211152426595325e-16 1
  outer loop
    vertex 423.6492004394531 31.64531707763672 10.69999980926514
    vertex 425.1492004394531 30.14531707763672 10.69999980926514
    vertex 423.6492004394531 168.3453216552734 10.69999980926514
  endloop
endfacet
facet normal -4.371645406786584e-12 1.211152426595325e-16 1
  outer loop
    vertex 290.6492004394531 30.14531707763672 10.69999980926514
    vertex 423.6492004394531 31.64531707763672 10.69999980926514
    vertex 292.1492004394531 31.64531707763672 10.69999980926514
  endloop
endfacet
facet normal -4.371645406786584e-12 1.211152426595325e-16 1
  outer loop
    vertex 290.6492004394531 30.14531707763672 10.69999980926514
    vertex 292.1492004394531 31.64531707763672 10.69999980926514
    vertex 290.6492004394531 169.8453216552734 10.69999980926514
  endloop
endfacet
facet normal 3.431138034029466e-16 1 1.498118022126147e-27
  outer loop
    vertex 423.6492004394531 168.3453216552734 1.5
    vertex 292.1492004394531 168.3453216552734 10.69999980926514
    vertex 423.6492004394531 168.3453216552734 10.69999980926514
  endloop
endfacet
facet normal 3.431138034029466e-16 1 1.498118022126147e-27
  outer loop
    vertex 292.1492004394531 168.3453216552734 10.69999980926514
    vertex 423.6492004394531 168.3453216552734 1.5
    vertex 292.1492004394531 168.3453216552734 1.5
  endloop
endfacet
facet normal -1.715569017014733e-16 -1 -7.490273295154881e-28
  outer loop
    vertex 292.1492004394531 31.64531707763672 10.69999980926514
    vertex 423.6492004394531 31.64531707763672 1.5
    vertex 423.6492004394531 31.64531707763672 10.69999980926514
  endloop
endfacet
facet normal -1.715569017014733e-16 -1 -7.490273295154881e-28
  outer loop
    vertex 423.6492004394531 31.64531707763672 1.5
    vertex 292.1492004394531 31.64531707763672 10.69999980926514
    vertex 292.1492004394531 31.64531707763672 1.5
  endloop
endfacet
facet normal -1 -7.436575960892934e-28 -4.331306147076219e-12
  outer loop
    vertex 292.1492004394531 168.3453216552734 10.69999980926514
    vertex 292.1492004394531 31.64531707763672 1.5
    vertex 292.1492004394531 31.64531707763672 10.69999980926514
  endloop
endfacet
facet normal -1 -7.436575960892934e-28 -4.331306147076219e-12
  outer loop
    vertex 292.1492004394531 31.64531707763672 1.5
    vertex 292.1492004394531 168.3453216552734 10.69999980926514
    vertex 292.1492004394531 168.3453216552734 1.5
  endloop
endfacet
facet normal -1 2.225343487872219e-17 -4.373444315031172e-12
  outer loop
    vertex 421.6492004394531 166.3453216552734 16.5
    vertex 421.6492004394531 33.64531707763672 1.5
    vertex 421.6492004394531 33.64531707763672 16.5
  endloop
endfacet
facet normal -1 2.225343487872219e-17 -4.373444315031172e-12
  outer loop
    vertex 421.6492004394531 33.64531707763672 1.5
    vertex 421.6492004394531 166.3453216552734 16.5
    vertex 421.6492004394531 115.7453155517578 7.300000190734863
  endloop
endfacet
facet normal -1 2.225343487872219e-17 -4.373444315031172e-12
  outer loop
    vertex 421.6492004394531 115.7453155517578 7.300000190734863
    vertex 421.6492004394531 166.3453216552734 16.5
    vertex 421.6492004394531 135.5453186035156 7.300000190734863
  endloop
endfacet
facet normal -1 2.225343487872219e-17 -4.373444315031172e-12
  outer loop
    vertex 421.6492004394531 135.5453186035156 7.300000190734863
    vertex 421.6492004394531 166.3453216552734 16.5
    vertex 421.6492004394531 137.4453125 6
  endloop
endfacet
facet normal -1 2.225343487872219e-17 -4.373444315031172e-12
  outer loop
    vertex 421.6492004394531 135.5453186035156 7.300000190734863
    vertex 421.6492004394531 137.4453125 6
    vertex 421.6492004394531 135.5453186035156 1.5
  endloop
endfacet
facet normal -1 2.225343487872219e-17 -4.373444315031172e-12
  outer loop
    vertex 421.6492004394531 137.4453125 6
    vertex 421.6492004394531 166.3453216552734 16.5
    vertex 421.6492004394531 156.3453216552734 6
  endloop
endfacet
facet normal -1 2.225343487872219e-17 -4.373444315031172e-12
  outer loop
    vertex 421.6492004394531 156.3453216552734 6
    vertex 421.6492004394531 166.3453216552734 16.5
    vertex 421.6492004394531 156.3453216552734 1.5
  endloop
endfacet
facet normal -1 2.225343487872219e-17 -4.373444315031172e-12
  outer loop
    vertex 421.6492004394531 156.3453216552734 1.5
    vertex 421.6492004394531 166.3453216552734 16.5
    vertex 421.6492004394531 166.3453216552734 1.5
  endloop
endfacet
facet normal -1 2.225343487872219e-17 -4.373444315031172e-12
  outer loop
    vertex 421.6492004394531 137.4453125 1.5
    vertex 421.6492004394531 135.5453186035156 1.5
    vertex 421.6492004394531 137.4453125 6
  endloop
endfacet
facet normal -1 2.225343487872219e-17 -4.373444315031172e-12
  outer loop
    vertex 421.6492004394531 115.7453155517578 1.5
    vertex 421.6492004394531 33.64531707763672 1.5
    vertex 421.6492004394531 115.7453155517578 7.300000190734863
  endloop
endfacet
facet normal 0 1 0
  outer loop
    vertex 423.6492004394531 137.4453125 1.5
    vertex 421.6492004394531 137.4453125 6
    vertex 423.6492004394531 137.4453125 6
  endloop
endfacet
facet normal 0 1 0
  outer loop
    vertex 421.6492004394531 137.4453125 6
    vertex 423.6492004394531 137.4453125 1.5
    vertex 421.6492004394531 137.4453125 1.5
  endloop
endfacet
facet normal 4.371887834392352e-12 -1.801467415065991e-25 -1
  outer loop
    vertex 421.6492004394531 137.4453125 6
    vertex 423.6492004394531 142.3453216552734 6
    vertex 423.6492004394531 137.4453125 6
  endloop
endfacet
facet normal 4.371887834392352e-12 -1.801467415065991e-25 -1
  outer loop
    vertex 423.6492004394531 142.3453216552734 6
    vertex 421.6492004394531 137.4453125 6
    vertex 423.6492004394531 156.3453216552734 6
  endloop
endfacet
facet normal 4.371887834392352e-12 -1.801467415065991e-25 -1
  outer loop
    vertex 423.6492004394531 156.3453216552734 6
    vertex 421.6492004394531 137.4453125 6
    vertex 421.6492004394531 156.3453216552734 6
  endloop
endfacet
facet normal 4.371887834392352e-12 -1.801467415065991e-25 -1
  outer loop
    vertex 425.1492004394531 142.3453216552734 6
    vertex 423.6492004394531 151.4453125 6
    vertex 425.1492004394531 151.4453125 6
  endloop
endfacet
facet normal 4.371887834392352e-12 -1.801467415065991e-25 -1
  outer loop
    vertex 423.6492004394531 151.4453125 6
    vertex 425.1492004394531 142.3453216552734 6
    vertex 423.6492004394531 142.3453216552734 6
  endloop
endfacet
facet normal 4.371887834392352e-12 -1.801467415065991e-25 -1
  outer loop
    vertex 423.6492004394531 151.4453125 6
    vertex 423.6492004394531 142.3453216552734 6
    vertex 423.6492004394531 156.3453216552734 6
  endloop
endfacet
facet normal 0 -1 0
  outer loop
    vertex 421.6492004394531 156.3453216552734 6
    vertex 423.6492004394531 156.3453216552734 1.5
    vertex 423.6492004394531 156.3453216552734 6
  endloop
endfacet
facet normal 0 -1 0
  outer loop
    vertex 423.6492004394531 156.3453216552734 1.5
    vertex 421.6492004394531 156.3453216552734 6
    vertex 421.6492004394531 156.3453216552734 1.5
  endloop
endfacet
facet normal -1.983273164836777e-13 -1 -8.658203015897238e-25
  outer loop
    vertex 423.6492004394531 151.4453125 6
    vertex 425.1492004394531 151.4453125 2.299999952316284
    vertex 425.1492004394531 151.4453125 6
  endloop
endfacet
facet normal -1.983273164836777e-13 -1 -8.658203015897238e-25
  outer loop
    vertex 425.1492004394531 151.4453125 2.299999952316284
    vertex 423.6492004394531 151.4453125 6
    vertex 423.6492004394531 151.4453125 2.299999952316284
  endloop
endfacet
facet normal -4.853391126491413e-12 0 1
  outer loop
    vertex 423.6492004394531 151.4453125 2.299999952316284
    vertex 425.1492004394531 142.3453216552734 2.299999952316284
    vertex 425.1492004394531 151.4453125 2.299999952316284
  endloop
endfacet
facet normal -4.853391126491413e-12 0 1
  outer loop
    vertex 425.1492004394531 142.3453216552734 2.299999952316284
    vertex 423.6492004394531 151.4453125 2.299999952316284
    vertex 423.6492004394531 142.3453216552734 2.299999952316284
  endloop
endfacet
facet normal 1.983273164836777e-13 1 1.059299679863076e-24
  outer loop
    vertex 425.1492004394531 142.3453216552734 2.299999952316284
    vertex 423.6492004394531 142.3453216552734 6
    vertex 425.1492004394531 142.3453216552734 6
  endloop
endfacet
facet normal 1.983273164836777e-13 1 1.059299679863076e-24
  outer loop
    vertex 423.6492004394531 142.3453216552734 6
    vertex 425.1492004394531 142.3453216552734 2.299999952316284
    vertex 423.6492004394531 142.3453216552734 2.299999952316284
  endloop
endfacet
facet normal -1 3.732440517680707e-14 -4.501147284757812e-12
  outer loop
    vertex 423.6492004394531 156.3453216552734 6
    vertex 423.6492004394531 151.4453125 2.299999952316284
    vertex 423.6492004394531 151.4453125 6
  endloop
endfacet
facet normal -1 3.732440517680707e-14 -4.501147284757812e-12
  outer loop
    vertex 423.6492004394531 142.3453216552734 6
    vertex 423.6492004394531 137.4453125 1.5
    vertex 423.6492004394531 137.4453125 6
  endloop
endfacet
facet normal -1 3.732440517680707e-14 -4.501147284757812e-12
  outer loop
    vertex 423.6492004394531 137.4453125 1.5
    vertex 423.6492004394531 142.3453216552734 6
    vertex 423.6492004394531 137.4453125 1.399999976158142
  endloop
endfacet
facet normal -1 3.732440517680707e-14 -4.501147284757812e-12
  outer loop
    vertex 423.6492004394531 137.4453125 1.399999976158142
    vertex 423.6492004394531 142.3453216552734 6
    vertex 423.6492004394531 142.3453216552734 2.299999952316284
  endloop
endfacet
facet normal -1 3.732440517680707e-14 -4.501147284757812e-12
  outer loop
    vertex 423.6492004394531 137.4453125 1.399999976158142
    vertex 423.6492004394531 142.3453216552734 2.299999952316284
    vertex 423.6492004394531 156.3453216552734 1.399999976158142
  endloop
endfacet
facet normal -1 3.732440517680707e-14 -4.501147284757812e-12
  outer loop
    vertex 423.6492004394531 156.3453216552734 1.399999976158142
    vertex 423.6492004394531 142.3453216552734 2.299999952316284
    vertex 423.6492004394531 151.4453125 2.299999952316284
  endloop
endfacet
facet normal -1 3.732440517680707e-14 -4.501147284757812e-12
  outer loop
    vertex 423.6492004394531 156.3453216552734 1.399999976158142
    vertex 423.6492004394531 151.4453125 2.299999952316284
    vertex 423.6492004394531 156.3453216552734 6
  endloop
endfacet
facet normal -1 3.732440517680707e-14 -4.501147284757812e-12
  outer loop
    vertex 423.6492004394531 156.3453216552734 1.399999976158142
    vertex 423.6492004394531 156.3453216552734 6
    vertex 423.6492004394531 156.3453216552734 1.5
  endloop
endfacet
facet normal 0 1 0
  outer loop
    vertex 423.6492004394531 115.7453155517578 1.5
    vertex 421.6492004394531 115.7453155517578 7.300000190734863
    vertex 423.6492004394531 115.7453155517578 7.300000190734863
  endloop
endfacet
facet normal 0 1 0
  outer loop
    vertex 421.6492004394531 115.7453155517578 7.300000190734863
    vertex 423.6492004394531 115.7453155517578 1.5
    vertex 421.6492004394531 115.7453155517578 1.5
  endloop
endfacet
facet normal 4.371574716804938e-12 0 -1
  outer loop
    vertex 421.6492004394531 115.7453155517578 7.300000190734863
    vertex 423.6492004394531 135.5453186035156 7.300000190734863
    vertex 423.6492004394531 115.7453155517578 7.300000190734863
  endloop
endfacet
facet normal 4.371574716804938e-12 0 -1
  outer loop
    vertex 423.6492004394531 135.5453186035156 7.300000190734863
    vertex 421.6492004394531 115.7453155517578 7.300000190734863
    vertex 421.6492004394531 135.5453186035156 7.300000190734863
  endloop
endfacet
facet normal 0 -1 0
  outer loop
    vertex 421.6492004394531 135.5453186035156 7.300000190734863
    vertex 423.6492004394531 135.5453186035156 1.5
    vertex 423.6492004394531 135.5453186035156 7.300000190734863
  endloop
endfacet
facet normal 0 -1 0
  outer loop
    vertex 423.6492004394531 135.5453186035156 1.5
    vertex 421.6492004394531 135.5453186035156 7.300000190734863
    vertex 421.6492004394531 135.5453186035156 1.5
  endloop
endfacet
facet normal 4.371741683939501e-12 -6.146554138754934e-17 -1
  outer loop
    vertex 423.6492004394531 31.64531707763672 1.5
    vertex 421.6492004394531 33.64531707763672 1.5
    vertex 423.6492004394531 115.7453155517578 1.5
  endloop
endfacet
facet normal 4.371741683939501e-12 -6.146554138754934e-17 -1
  outer loop
    vertex 421.6492004394531 33.64531707763672 1.5
    vertex 423.6492004394531 31.64531707763672 1.5
    vertex 292.1492004394531 31.64531707763672 1.5
  endloop
endfacet
facet normal 4.371741683939501e-12 -6.146554138754934e-17 -1
  outer loop
    vertex 421.6492004394531 33.64531707763672 1.5
    vertex 292.1492004394531 31.64531707763672 1.5
    vertex 294.1492004394531 33.64531707763672 1.5
  endloop
endfacet
facet normal 4.371741683939501e-12 -6.146554138754934e-17 -1
  outer loop
    vertex 294.1492004394531 33.64531707763672 1.5
    vertex 292.1492004394531 31.64531707763672 1.5
    vertex 294.1492004394531 166.3453216552734 1.5
  endloop
endfacet
facet normal 4.371741683939501e-12 -6.146554138754934e-17 -1
  outer loop
    vertex 423.6492004394531 168.3453216552734 1.5
    vertex 421.6492004394531 166.3453216552734 1.5
    vertex 292.1492004394531 168.3453216552734 1.5
  endloop
endfacet
facet normal 4.371741683939501e-12 -6.146554138754934e-17 -1
  outer loop
    vertex 421.6492004394531 166.3453216552734 1.5
    vertex 423.6492004394531 168.3453216552734 1.5
    vertex 423.6492004394531 156.3453216552734 1.5
  endloop
endfacet
facet normal 4.371741683939501e-12 -6.146554138754934e-17 -1
  outer loop
    vertex 421.6492004394531 166.3453216552734 1.5
    vertex 423.6492004394531 156.3453216552734 1.5
    vertex 421.6492004394531 156.3453216552734 1.5
  endloop
endfacet
facet normal 4.371741683939501e-12 -6.146554138754934e-17 -1
  outer loop
    vertex 292.1492004394531 168.3453216552734 1.5
    vertex 421.6492004394531 166.3453216552734 1.5
    vertex 294.1492004394531 166.3453216552734 1.5
  endloop
endfacet
facet normal 4.371741683939501e-12 -6.146554138754934e-17 -1
  outer loop
    vertex 292.1492004394531 168.3453216552734 1.5
    vertex 294.1492004394531 166.3453216552734 1.5
    vertex 292.1492004394531 31.64531707763672 1.5
  endloop
endfacet
facet normal 4.371741683939501e-12 -6.146554138754934e-17 -1
  outer loop
    vertex 421.6492004394531 115.7453155517578 1.5
    vertex 423.6492004394531 115.7453155517578 1.5
    vertex 421.6492004394531 33.64531707763672 1.5
  endloop
endfacet
facet normal -1 0 -4.371574716804938e-12
  outer loop
    vertex 423.6492004394531 115.7453155517578 7.300000190734863
    vertex 423.6492004394531 122.4453201293945 6
    vertex 423.6492004394531 115.7453155517578 1.5
  endloop
endfacet
facet normal -1 0 -4.371574716804938e-12
  outer loop
    vertex 423.6492004394531 122.4453201293945 6
    vertex 423.6492004394531 115.7453155517578 7.300000190734863
    vertex 423.6492004394531 135.5453186035156 7.300000190734863
  endloop
endfacet
facet normal -1 0 -4.371574716804938e-12
  outer loop
    vertex 423.6492004394531 122.4453201293945 6
    vertex 423.6492004394531 135.5453186035156 7.300000190734863
    vertex 423.6492004394531 128.8453216552734 6
  endloop
endfacet
facet normal -1 0 -4.371574716804938e-12
  outer loop
    vertex 423.6492004394531 128.8453216552734 6
    vertex 423.6492004394531 135.5453186035156 7.300000190734863
    vertex 423.6492004394531 128.8453216552734 2.799999952316284
  endloop
endfacet
facet normal -1 0 -4.371574716804938e-12
  outer loop
    vertex 423.6492004394531 115.7453155517578 1.5
    vertex 423.6492004394531 122.4453201293945 2.799999952316284
    vertex 423.6492004394531 135.5453186035156 1.5
  endloop
endfacet
facet normal -1 0 -4.371574716804938e-12
  outer loop
    vertex 423.6492004394531 122.4453201293945 2.799999952316284
    vertex 423.6492004394531 115.7453155517578 1.5
    vertex 423.6492004394531 122.4453201293945 6
  endloop
endfacet
facet normal -1 0 -4.371574716804938e-12
  outer loop
    vertex 423.6492004394531 135.5453186035156 1.5
    vertex 423.6492004394531 122.4453201293945 2.799999952316284
    vertex 423.6492004394531 128.8453216552734 2.799999952316284
  endloop
endfacet
facet normal -1 0 -4.371574716804938e-12
  outer loop
    vertex 423.6492004394531 135.5453186035156 1.5
    vertex 423.6492004394531 128.8453216552734 2.799999952316284
    vertex 423.6492004394531 135.5453186035156 7.300000190734863
  endloop
endfacet
facet normal -1.135036509225529e-12 -1 -4.961185675980204e-24
  outer loop
    vertex 423.6492004394531 128.8453216552734 6
    vertex 425.1492004394531 128.8453216552734 2.799999952316284
    vertex 425.1492004394531 128.8453216552734 6
  endloop
endfacet
facet normal -1.135036509225529e-12 -1 -4.961185675980204e-24
  outer loop
    vertex 425.1492004394531 128.8453216552734 2.799999952316284
    vertex 423.6492004394531 128.8453216552734 6
    vertex 423.6492004394531 128.8453216552734 2.799999952316284
  endloop
endfacet
facet normal -2.100875029498184e-12 5.507747367098608e-17 1
  outer loop
    vertex 423.6492004394531 128.8453216552734 2.799999952316284
    vertex 425.1492004394531 122.4453201293945 2.799999952316284
    vertex 425.1492004394531 128.8453216552734 2.799999952316284
  endloop
endfacet
facet normal -2.100875029498184e-12 5.507747367098608e-17 1
  outer loop
    vertex 425.1492004394531 122.4453201293945 2.799999952316284
    vertex 423.6492004394531 128.8453216552734 2.799999952316284
    vertex 423.6492004394531 122.4453201293945 2.799999952316284
  endloop
endfacet
facet normal 1.135036509225529e-12 1 -1.920458947490495e-25
  outer loop
    vertex 425.1492004394531 122.4453201293945 2.799999952316284
    vertex 423.6492004394531 122.4453201293945 6
    vertex 425.1492004394531 122.4453201293945 6
  endloop
endfacet
facet normal 1.135036509225529e-12 1 -1.920458947490495e-25
  outer loop
    vertex 423.6492004394531 122.4453201293945 6
    vertex 425.1492004394531 122.4453201293945 2.799999952316284
    vertex 423.6492004394531 122.4453201293945 2.799999952316284
  endloop
endfacet
facet normal 2.100875029498184e-12 0 -1
  outer loop
    vertex 423.6492004394531 122.4453201293945 6
    vertex 425.1492004394531 128.8453216552734 6
    vertex 425.1492004394531 122.4453201293945 6
  endloop
endfacet
facet normal 2.100875029498184e-12 0 -1
  outer loop
    vertex 425.1492004394531 128.8453216552734 6
    vertex 423.6492004394531 122.4453201293945 6
    vertex 423.6492004394531 128.8453216552734 6
  endloop
endfacet
facet normal -4.360295544764137e-12 -2.070042813377693e-13 1
  outer loop
    vertex 294.1492004394531 166.3453216552734 1.5
    vertex 421.6492004394531 156.3453216552734 1.5
    vertex 421.6492004394531 166.3453216552734 1.5
  endloop
endfacet
facet normal -4.360295544764137e-12 -2.070042813377693e-13 1
  outer loop
    vertex 421.6492004394531 156.3453216552734 1.5
    vertex 294.1492004394531 166.3453216552734 1.5
    vertex 401.1492004394531 156.3453216552734 1.5
  endloop
endfacet
facet normal -4.360295544764137e-12 -2.070042813377693e-13 1
  outer loop
    vertex 401.1492004394531 156.3453216552734 1.5
    vertex 294.1492004394531 166.3453216552734 1.5
    vertex 401.1492004394531 137.4453125 1.5
  endloop
endfacet
facet normal -4.360295544764137e-12 -2.070042813377693e-13 1
  outer loop
    vertex 401.1492004394531 137.4453125 1.5
    vertex 421.6492004394531 135.5453186035156 1.5
    vertex 421.6492004394531 137.4453125 1.5
  endloop
endfacet
facet normal -4.360295544764137e-12 -2.070042813377693e-13 1
  outer loop
    vertex 421.6492004394531 135.5453186035156 1.5
    vertex 401.1492004394531 137.4453125 1.5
    vertex 421.6492004394531 115.7453155517578 1.5
  endloop
endfacet
facet normal -4.360295544764137e-12 -2.070042813377693e-13 1
  outer loop
    vertex 421.6492004394531 115.7453155517578 1.5
    vertex 401.1492004394531 137.4453125 1.5
    vertex 421.6492004394531 33.64531707763672 1.5
  endloop
endfacet
facet normal -4.360295544764137e-12 -2.070042813377693e-13 1
  outer loop
    vertex 421.6492004394531 33.64531707763672 1.5
    vertex 401.1492004394531 137.4453125 1.5
    vertex 294.1492004394531 33.64531707763672 1.5
  endloop
endfacet
facet normal -4.360295544764137e-12 -2.070042813377693e-13 1
  outer loop
    vertex 294.1492004394531 33.64531707763672 1.5
    vertex 401.1492004394531 137.4453125 1.5
    vertex 294.1492004394531 166.3453216552734 1.5
  endloop
endfacet
facet normal -4.360295544764137e-12 -2.070042813377693e-13 1
  outer loop
    vertex 421.6492004394531 135.5453186035156 1.5
    vertex 423.6492004394531 115.7453155517578 1.5
    vertex 423.6492004394531 135.5453186035156 1.5
  endloop
endfacet
facet normal -4.360295544764137e-12 -2.070042813377693e-13 1
  outer loop
    vertex 423.6492004394531 115.7453155517578 1.5
    vertex 421.6492004394531 135.5453186035156 1.5
    vertex 421.6492004394531 115.7453155517578 1.5
  endloop
endfacet
facet normal 3.629111984884692e-13 -2.503142433465858e-29 1
  outer loop
    vertex 421.6492004394531 156.3453216552734 1.399999976158142
    vertex 423.6492004394531 137.4453125 1.399999976158142
    vertex 423.6492004394531 156.3453216552734 1.399999976158142
  endloop
endfacet
facet normal 3.629111984884692e-13 -2.503142433465858e-29 1
  outer loop
    vertex 423.6492004394531 137.4453125 1.399999976158142
    vertex 421.6492004394531 156.3453216552734 1.399999976158142
    vertex 421.6492004394531 137.4453125 1.399999976158142
  endloop
endfacet
facet normal 3.629111984884692e-13 -2.503142433465858e-29 1
  outer loop
    vertex 421.6492004394531 137.4453125 1.399999976158142
    vertex 421.6492004394531 156.3453216552734 1.399999976158142
    vertex 401.1492004394531 156.3453216552734 1.399999976158142
  endloop
endfacet
facet normal 3.629111984884692e-13 -2.503142433465858e-29 1
  outer loop
    vertex 421.6492004394531 137.4453125 1.399999976158142
    vertex 401.1492004394531 156.3453216552734 1.399999976158142
    vertex 401.1492004394531 137.4453125 1.399999976158142
  endloop
endfacet
facet normal 1.102233346068615e-40 -1 -2.503142433465858e-29
  outer loop
    vertex 421.6492004394531 156.3453216552734 1.5
    vertex 423.6492004394531 156.3453216552734 1.399999976158142
    vertex 423.6492004394531 156.3453216552734 1.5
  endloop
endfacet
facet normal 1.102233346068615e-40 -1 -2.503142433465858e-29
  outer loop
    vertex 423.6492004394531 156.3453216552734 1.399999976158142
    vertex 421.6492004394531 156.3453216552734 1.5
    vertex 421.6492004394531 156.3453216552734 1.399999976158142
  endloop
endfacet
facet normal -1.571556227740282e-41 -1 -2.503142433465858e-29
  outer loop
    vertex 401.1492004394531 156.3453216552734 1.399999976158142
    vertex 421.6492004394531 156.3453216552734 1.5
    vertex 401.1492004394531 156.3453216552734 1.5
  endloop
endfacet
facet normal -1.571556227740282e-41 -1 -2.503142433465858e-29
  outer loop
    vertex 421.6492004394531 156.3453216552734 1.5
    vertex 401.1492004394531 156.3453216552734 1.399999976158142
    vertex 421.6492004394531 156.3453216552734 1.399999976158142
  endloop
endfacet
facet normal 1 0 -3.629111984884692e-13
  outer loop
    vertex 401.1492004394531 156.3453216552734 1.399999976158142
    vertex 401.1492004394531 137.4453125 1.5
    vertex 401.1492004394531 137.4453125 1.399999976158142
  endloop
endfacet
facet normal 1 0 -3.629111984884692e-13
  outer loop
    vertex 401.1492004394531 137.4453125 1.5
    vertex 401.1492004394531 156.3453216552734 1.399999976158142
    vertex 401.1492004394531 156.3453216552734 1.5
  endloop
endfacet
facet normal 1.571556227740282e-41 1 2.503142433465858e-29
  outer loop
    vertex 421.6492004394531 137.4453125 1.5
    vertex 401.1492004394531 137.4453125 1.399999976158142
    vertex 401.1492004394531 137.4453125 1.5
  endloop
endfacet
facet normal 1.571556227740282e-41 1 2.503142433465858e-29
  outer loop
    vertex 401.1492004394531 137.4453125 1.399999976158142
    vertex 421.6492004394531 137.4453125 1.5
    vertex 421.6492004394531 137.4453125 1.399999976158142
  endloop
endfacet
facet normal -1.102233346068615e-40 1 2.503142433465858e-29
  outer loop
    vertex 423.6492004394531 137.4453125 1.399999976158142
    vertex 421.6492004394531 137.4453125 1.5
    vertex 423.6492004394531 137.4453125 1.5
  endloop
endfacet
facet normal -1.102233346068615e-40 1 2.503142433465858e-29
  outer loop
    vertex 421.6492004394531 137.4453125 1.5
    vertex 423.6492004394531 137.4453125 1.399999976158142
    vertex 421.6492004394531 137.4453125 1.399999976158142
  endloop
endfacet
endsolid 8766
